<svg width="180" height="24" viewBox="0 0 180 24" fill="none" xmlns="http://www.w3.org/2000/svg">
<g clip-path="url(#clip0_279_415)">
<path d="M92.4814 16.0577C92.4814 11.6731 94.5391 8.75 98.2891 8.75C102.039 8.75 101.328 9.46154 102.174 10.3077L101.366 11.3654C100.443 10.5577 99.5584 9.96154 98.2699 9.96154C95.5199 9.96154 94.0968 12.0577 94.0968 15.9615C94.0968 19.8654 95.5391 22.4231 98.2314 22.4231C100.924 22.4231 100.578 21.75 101.501 20.7885L102.308 21.8462C101.385 22.8654 100.116 23.6154 98.2122 23.6154C94.3276 23.6154 92.5007 20.4615 92.5007 16.0769L92.4814 16.0577Z" fill="black" style="fill:black;fill-opacity:1;"/>
<path d="M105.366 9.07711L106.52 8.82711C106.635 9.09634 106.77 10.3271 106.828 11.231C107.385 9.65403 109.039 8.73096 110.462 8.73096C111.885 8.73096 111.078 8.75019 111.289 8.84634L111.097 10.3079C110.924 10.2502 110.655 10.1925 110.328 10.1925C108.385 10.1925 106.866 11.5963 106.866 13.8463V23.2694H105.366V9.07711Z" fill="black" style="fill:black;fill-opacity:1;"/>
<path d="M113.424 16.1731C113.424 11.7885 115.501 8.75 118.962 8.75C122.424 8.75 124.078 10.7692 124.078 15.8654V16.3846H115.001C115.116 20.7692 116.616 22.3846 119.462 22.3846C122.308 22.3846 122.039 21.6731 122.982 20.9423L123.732 21.8846C122.539 22.9038 121.097 23.5769 119.308 23.5769C115.462 23.5769 113.443 20.5577 113.443 16.1538L113.424 16.1731ZM122.443 15.1923C122.424 11.1538 121.174 9.92308 118.905 9.92308C116.635 9.92308 115.174 11.5577 115.02 15.1923H122.443Z" fill="black" style="fill:black;fill-opacity:1;"/>
<path d="M135.231 21.5579C134.308 22.7117 133.02 23.5771 131.308 23.5771C128.597 23.5771 127.097 22.0194 127.097 19.654C127.097 17.2886 129.481 15.1156 133.943 15.1156C138.404 15.1156 135.058 15.1348 135.193 15.1733V13.0963C135.193 11.0771 134.481 10.1925 132.501 10.1925C130.52 10.1925 129.289 10.8848 128.27 11.8079L127.558 10.8079C128.962 9.65403 130.654 8.98096 132.712 8.98096C134.77 8.98096 136.674 10.6348 136.674 13.3848V19.1156C136.674 21.4233 136.674 22.0002 137.731 22.6348L137.039 23.6348C136.154 23.3271 135.52 22.5579 135.27 21.5771L135.231 21.5579ZM135.135 20.4233V16.2117C134.77 16.1925 134.27 16.154 133.866 16.154C130.174 16.154 128.693 17.0963 128.693 19.5963C128.693 22.0963 129.52 22.481 131.443 22.481C133.366 22.481 134.327 21.5579 135.154 20.4233H135.135Z" fill="black" style="fill:black;fill-opacity:1;"/>
<path d="M141.827 20.4231V10.1538H140V8.99998H141.827C141.827 7.44229 142.019 5.78844 142.096 5.40383L143.288 5.0769V8.99998H146.75L146.615 10.1538H143.288V20.1154C143.288 21.7692 143.731 22.3269 144.981 22.3269C146.231 22.3269 146.173 22.1346 146.558 21.9423L146.885 23.0961C146.269 23.4038 145.577 23.5577 144.808 23.5577C142.75 23.5577 141.808 22.5577 141.808 20.4038L141.827 20.4231Z" fill="black" style="fill:black;fill-opacity:1;"/>
<path d="M150 5.1346C150 4.55767 150.462 4.0769 151.058 4.0769C151.654 4.0769 152.115 4.51921 152.115 5.1346C152.115 5.74998 151.654 6.19229 151.058 6.19229C150.462 6.19229 150 5.73075 150 5.1346ZM150.269 8.99998L151.769 8.74998V23.2884H150.269V8.99998Z" fill="black" style="fill:black;fill-opacity:1;"/>
<path d="M154.731 9L156.231 8.75L158.828 16.1346C159.501 18.0385 160.289 20.2308 160.655 21.5C161.02 20.1923 161.77 18.1154 162.462 16.1538L164.962 8.98077H166.52L161.405 23.2692H159.885L154.77 8.98077L154.731 9Z" fill="black" style="fill:black;fill-opacity:1;"/>
<path d="M168.5 16.1731C168.5 11.7885 170.577 8.75 174.038 8.75C177.5 8.75 179.154 10.7692 179.154 15.8654V16.3846H170.077C170.192 20.7692 171.692 22.3846 174.538 22.3846C177.385 22.3846 177.115 21.6731 178.058 20.9423L178.808 21.8846C177.615 22.9038 176.173 23.5769 174.385 23.5769C170.538 23.5769 168.519 20.5577 168.519 16.1538L168.5 16.1731ZM177.519 15.1923C177.5 11.1538 176.25 9.92308 173.981 9.92308C171.712 9.92308 170.25 11.5577 170.096 15.1923H177.519Z" fill="black" style="fill:black;fill-opacity:1;"/>
<path d="M34.9618 5.59615C34.9618 4.40385 34.2887 3.51923 33.1541 3.19231L34.7695 1.36538V0H29.3271V1.90385H31.8464C31.8848 1.90385 31.9425 1.90385 31.981 1.90385C31.9425 1.94231 31.9233 1.98077 31.9041 2L30.4041 3.71154L30.8656 4.75H31.6156C32.2118 4.75 32.8271 5 32.8271 5.57692C32.8271 6.15385 32.3464 6.51923 31.7118 6.51923C30.7118 6.51923 30.1156 5.75 30.1156 5.75L29.9618 5.53846L28.8271 7.05769L28.9041 7.17308C28.9425 7.23077 29.8464 8.46154 31.7502 8.46154C33.6541 8.46154 34.9425 6.98077 34.9425 5.57692L34.9618 5.59615Z" fill="black" style="fill:black;fill-opacity:1;"/>
<path d="M9.94231 13.1732C11.4615 12.3655 12.3654 10.827 12.3654 9.00011C12.3654 5.6155 10.4231 4.03857 6.23077 4.03857H0V23.654H5.86538C10.5769 23.654 12.9615 21.7309 12.9615 17.9232C12.9615 14.1155 11.8462 13.9617 9.94231 13.1732ZM5.98077 12.0386H3.5V6.92319H5.90385C8.13462 6.92319 8.84615 7.50011 8.84615 9.32704C8.84615 11.154 7.94231 12.0386 5.98077 12.0386ZM3.5 14.8463H5.88462C8.44231 14.8463 9.40385 15.6732 9.40385 17.8655C9.40385 20.0578 8.38461 20.7886 5.86538 20.7886H3.51923V14.8463H3.5Z" fill="black" style="fill:black;fill-opacity:1;"/>
<path d="M19.8848 14.9617H25.8655V11.9809H19.8848V7.07709H27.1155V4.05786H16.3848V23.6732H27.7309L27.8271 23.3656L28.5578 21.0771L28.6925 20.6348H19.8848V14.9617Z" fill="black" style="fill:black;fill-opacity:1;"/>
<path d="M38.0585 4.05786L31.8662 23.6732H35.3854L36.9239 18.2886H42.3085L43.847 23.6732H47.597L41.5393 4.05786H38.0585ZM37.7124 15.5386L38.5585 12.6732C38.8662 11.654 39.2893 10.2694 39.6354 8.96171C39.9431 10.154 40.3277 11.5002 40.6739 12.6925L41.5008 15.5386H37.6931H37.7124Z" fill="black" style="fill:black;fill-opacity:1;"/>
<path d="M63.2696 4.05786L60.5965 14.0771C60.2696 15.2694 60.0004 16.3848 59.7888 17.3848C59.5581 16.2502 59.2888 15.0579 59.0388 14.0963L56.385 4.07709H52.1158L50.4619 23.6925H53.8273L54.6158 13.0771C54.6735 12.1732 54.7311 11.1732 54.7888 10.2886C55.0004 11.1732 55.2311 12.1156 55.4619 13.0386L58.2504 23.6925H61.2119L64.0773 13.0002C64.2888 12.1732 64.5196 11.2117 64.7311 10.3271C64.7888 11.2309 64.8658 12.1925 64.9235 13.0386L65.7119 23.6925H69.1927L67.5004 4.07709H63.2888L63.2696 4.05786Z" fill="black" style="fill:black;fill-opacity:1;"/>
<path d="M79.7886 12.3079L77.654 11.6925C75.6925 11.0963 75.3078 10.3079 75.3078 9.21173C75.3078 7.65403 76.3848 6.6348 78.0578 6.6348C79.7309 6.6348 81.0771 7.50019 81.7502 8.01942L82.0963 8.28865L83.6155 5.53865L83.3271 5.34634C82.2694 4.61557 80.4617 3.73096 77.9617 3.73096C75.4617 3.73096 74.5386 4.26942 73.4617 5.30788C72.3848 6.32711 71.8271 7.75019 71.8271 9.44249C71.8271 12.231 73.2309 13.9233 76.2502 14.7886L78.1155 15.3271C80.0002 15.8848 80.654 16.5963 80.654 18.0771C80.654 19.5579 79.3463 21.0579 77.3078 21.0579C75.2694 21.0579 74.2886 20.5002 72.8655 19.404L72.5002 19.1156L71.1348 21.9617L71.3848 22.154C72.9809 23.3271 75.1155 23.981 77.404 23.981C81.5963 23.981 84.1925 21.6156 84.1925 17.8079C84.1925 14.0002 82.7886 13.154 79.8078 12.3079H79.7886Z" fill="black" style="fill:black;fill-opacity:1;"/>
</g>
<defs>
<clipPath id="clip0_279_415">
<rect width="179.154" height="24" fill="white" style="fill:white;fill-opacity:1;"/>
</clipPath>
</defs>
</svg>
